<svg id="visual" viewBox="0 0 960 540" width="960" height="540" xmlns="http://www.w3.org/2000/svg" xmlns:xlink="http://www.w3.org/1999/xlink" version="1.1"><rect x="0" y="0" width="960" height="540" fill="#184654"></rect><path d="M0 341L22.8 347.5C45.7 354 91.3 367 137 375.3C182.7 383.7 228.3 387.3 274 387.3C319.7 387.3 365.3 383.7 411.2 375.5C457 367.3 503 354.7 548.8 352.5C594.7 350.3 640.3 358.7 686 364.5C731.7 370.3 777.3 373.7 823 373.2C868.7 372.7 914.3 368.3 937.2 366.2L960 364L960 541L937.2 541C914.3 541 868.7 541 823 541C777.3 541 731.7 541 686 541C640.3 541 594.7 541 548.8 541C503 541 457 541 411.2 541C365.3 541 319.7 541 274 541C228.3 541 182.7 541 137 541C91.3 541 45.7 541 22.8 541L0 541Z" fill="#ae1b24"></path><path d="M0 370L22.8 376.3C45.7 382.7 91.3 395.3 137 394.7C182.7 394 228.3 380 274 383.5C319.7 387 365.3 408 411.2 418.3C457 428.7 503 428.3 548.8 418.8C594.7 409.3 640.3 390.7 686 378.8C731.7 367 777.3 362 823 366.8C868.7 371.7 914.3 386.3 937.2 393.7L960 401L960 541L937.2 541C914.3 541 868.7 541 823 541C777.3 541 731.7 541 686 541C640.3 541 594.7 541 548.8 541C503 541 457 541 411.2 541C365.3 541 319.7 541 274 541C228.3 541 182.7 541 137 541C91.3 541 45.7 541 22.8 541L0 541Z" fill="#cb4c20"></path><path d="M0 451L22.8 452.3C45.7 453.7 91.3 456.3 137 451C182.7 445.7 228.3 432.3 274 430.7C319.7 429 365.3 439 411.2 444.3C457 449.7 503 450.3 548.8 450.8C594.7 451.3 640.3 451.7 686 451.5C731.7 451.3 777.3 450.7 823 448.5C868.7 446.3 914.3 442.7 937.2 440.8L960 439L960 541L937.2 541C914.3 541 868.7 541 823 541C777.3 541 731.7 541 686 541C640.3 541 594.7 541 548.8 541C503 541 457 541 411.2 541C365.3 541 319.7 541 274 541C228.3 541 182.7 541 137 541C91.3 541 45.7 541 22.8 541L0 541Z" fill="#e3771b"></path><path d="M0 485L22.8 479.7C45.7 474.3 91.3 463.7 137 462.7C182.7 461.7 228.3 470.3 274 471.7C319.7 473 365.3 467 411.2 467.7C457 468.3 503 475.7 548.8 473.8C594.7 472 640.3 461 686 454.2C731.7 447.3 777.3 444.7 823 449.8C868.7 455 914.3 468 937.2 474.5L960 481L960 541L937.2 541C914.3 541 868.7 541 823 541C777.3 541 731.7 541 686 541C640.3 541 594.7 541 548.8 541C503 541 457 541 411.2 541C365.3 541 319.7 541 274 541C228.3 541 182.7 541 137 541C91.3 541 45.7 541 22.8 541L0 541Z" fill="#f4a31b"></path><path d="M0 515L22.8 512.7C45.7 510.3 91.3 505.7 137 500.5C182.7 495.3 228.3 489.7 274 488.8C319.7 488 365.3 492 411.2 491.2C457 490.3 503 484.7 548.8 486.8C594.7 489 640.3 499 686 504.5C731.7 510 777.3 511 823 505.7C868.7 500.3 914.3 488.7 937.2 482.8L960 477L960 541L937.2 541C914.3 541 868.7 541 823 541C777.3 541 731.7 541 686 541C640.3 541 594.7 541 548.8 541C503 541 457 541 411.2 541C365.3 541 319.7 541 274 541C228.3 541 182.7 541 137 541C91.3 541 45.7 541 22.8 541L0 541Z" fill="#ffcf2b"></path></svg>